<!--?xml version="1.0" encoding="utf-8"?-->
<!-- Generator: Adobe Illustrator 16.0.0, SVG Export Plug-In . SVG Version: 6.00 Build 0)  -->

<svg version="1.1" id="Layer_1" xmlns="http://www.w3.org/2000/svg" xmlns:xlink="http://www.w3.org/1999/xlink" x="0px" y="0px" width="1000px" height="1000px" viewBox="0 0 1000 1000" enable-background="new 0 0 1000 1000" xml:space="preserve" class="" style="">
<path fill="none" stroke="#000000" stroke-width="16" stroke-miterlimit="10" d="M973.438,846.484l-187.5-187.5
	c-2.734-2.734-6.445-4.297-10.352-4.297s-7.617,1.562-10.352,4.297l-7.617,7.617l-51.367-51.367
	c108.398-151.953,94.336-364.844-41.797-501.172C591.016,40.43,493.359,0,389.258,0C285.352,0,187.5,40.43,114.062,114.062
	c-151.758,151.758-151.758,398.828,0,550.586c73.438,73.633,171.289,114.062,275.391,114.062c82.031,0,160.352-25.195,225.781-72.07
	l51.367,51.367l-7.617,7.617c-2.734,2.734-4.297,6.445-4.297,10.352s1.562,7.617,4.297,10.352l187.5,187.5
	c16.992,16.992,39.648,26.367,63.672,26.367s46.68-9.375,63.672-26.367s26.367-39.648,26.367-63.672
	C999.805,885.938,990.43,863.477,973.438,846.484z M607.617,675.586c-0.391,0.195-0.586,0.586-0.977,0.781
	c-62.305,47.266-137.695,72.852-217.188,72.852c-96.094,0-186.523-37.5-254.492-105.469c-140.43-140.43-140.43-368.75,0-509.18
	C202.93,66.602,293.359,29.102,389.453,29.102s186.523,37.5,254.492,105.469c128.711,128.711,139.453,331.25,32.227,472.07
	c-0.195,0.195-0.391,0.391-0.586,0.781c-9.766,12.695-20.508,25-31.641,36.133C632.422,655.273,620.312,665.82,607.617,675.586z
	 M638.477,688.477c8.984-7.617,17.773-15.43,26.172-23.828s16.406-17.188,23.828-25.977l48.633,48.633l-50,50L638.477,688.477z
	 M952.734,952.93L952.734,952.93c-23.633,23.633-62.109,23.633-85.742,0L689.844,775.781l7.617-7.617l70.703-70.703l0,0l7.617-7.617
	L952.93,866.992c11.523,11.523,17.773,26.758,17.773,42.969C970.508,926.172,964.258,941.406,952.734,952.93z" class="RWmBdhCg_0"></path>
<path fill="none" stroke="#000000" stroke-width="16" stroke-miterlimit="10" d="M389.258,81.445
	c-98.047,0-190.82,47.461-248.242,126.953c-4.688,6.641-3.32,15.625,3.32,20.508c6.641,4.688,15.625,3.32,20.508-3.32
	c51.953-71.875,135.938-114.648,224.414-114.648c152.539,0,276.758,124.219,276.758,276.758c0,19.727-2.148,39.453-6.25,58.594
	c-1.758,8.008,3.32,15.625,11.328,17.383c0.977,0.195,2.148,0.391,3.125,0.391c6.836,0,12.891-4.688,14.258-11.523
	c4.492-21.094,6.836-42.969,6.836-64.844C695.312,218.945,558.008,81.445,389.258,81.445z" class="RWmBdhCg_1"></path>
<path fill="none" stroke="#000000" stroke-width="16" stroke-miterlimit="10" d="M666.211,479.688
	c-7.617-2.93-16.016,0.781-18.945,8.398c-14.062,35.938-35.156,68.164-62.109,95.117c-14.648-33.008-38.672-62.695-69.141-85.156
	c-19.727-14.453-41.797-25.586-64.844-33.008c28.516-19.727,47.266-52.734,47.266-89.844V293.75
	c0-58.398-45.898-106.055-103.516-108.984c-1.953,0-3.711-0.195-5.664-0.195l0,0c-2.539,0-4.883,0.195-7.227,0.195
	c-56.836,3.711-101.953,51.172-101.953,108.984v81.445c0,37.305,18.75,70.117,47.266,89.844
	c-23.047,7.227-45.117,18.359-64.844,33.008c-30.469,22.461-54.297,51.953-69.141,84.961c-50-50.195-81.055-119.336-81.055-195.508
	c0-42.188,9.18-82.812,27.539-120.508c3.516-7.227,0.391-16.016-6.836-19.531s-16.016-0.391-19.531,6.836
	C93.164,296.094,83.008,340.82,83.008,387.5c0,91.992,40.82,174.609,105.273,230.859c0.391,0.391,0.977,0.977,1.367,1.367
	c24.023,20.703,51.172,37.305,79.883,49.609c0.195,0,0.391,0.195,0.586,0.195c0.586,0.195,1.367,0.586,2.148,0.781
	c25.977,10.742,53.516,17.969,82.422,21.289c0.195,0,0.391,0,0.781,0c1.758,0.195,3.711,0.391,5.664,0.586
	c0.586,0,1.367,0.195,1.953,0.195c1.562,0.195,3.125,0.195,4.688,0.391c0.977,0,1.953,0.195,2.93,0.195
	c1.367,0,2.734,0.195,4.102,0.195s2.734,0.195,4.102,0.195c0.977,0,1.953,0,3.125,0.195c2.539,0,4.883,0,7.422,0
	c3.516,0,6.836,0,10.352-0.195c0.781,0,1.562,0,2.344,0c3.125-0.195,6.055-0.391,9.18-0.586c1.367,0,2.539-0.195,3.906-0.391
	c1.953-0.195,4.102-0.391,6.055-0.586c2.539-0.195,5.273-0.586,7.812-0.977c0.781-0.195,1.562-0.195,2.344-0.391
	c41.797-5.664,81.641-19.922,117.773-41.992c0.781-0.391,1.367-0.781,2.148-1.367c1.562-0.977,3.32-1.953,4.883-3.125
	c2.148-1.367,4.297-2.734,6.25-4.297c0.586-0.391,1.172-0.781,1.758-1.172s1.367-0.977,1.953-1.367
	c1.758-1.367,3.711-2.539,5.469-3.906c1.367-0.977,2.734-1.953,4.102-3.125c1.562-1.172,2.93-2.344,4.492-3.516
	c1.367-1.172,2.734-2.148,4.102-3.32c1.562-1.172,3.125-2.539,4.492-3.906l0,0c38.086-32.617,67.578-74.023,85.938-121.094
	C677.539,491.211,673.828,482.617,666.211,479.688z M309.375,293.945c0-43.945,35.742-79.883,79.883-79.883
	s79.883,35.742,79.883,79.883v24.219c-33.594-8.398-47.266-42.969-48.047-44.531c-1.953-5.273-7.031-9.18-12.695-9.375
	c-5.664-0.391-11.133,2.539-13.867,7.617c-0.977,1.758-24.023,41.797-85.156,47.461V293.945L309.375,293.945z M330.273,650.781
	l10.156,9.375c-14.648-2.539-28.906-6.445-42.773-11.328l0,0c-1.758-0.586-3.516-1.172-5.273-1.953
	c-0.391-0.195-0.586-0.195-0.977-0.391c-1.562-0.586-2.93-1.172-4.492-1.758s-2.93-1.172-4.492-1.758
	c-0.391-0.195-0.586-0.195-0.977-0.391c-23.438-9.961-45.312-23.047-65.039-38.867c19.531-51.367,64.062-92.188,117.188-109.961
	l17.383,33.594l-25.195,108.984C324.805,641.797,326.367,647.266,330.273,650.781z M309.375,375.195v-26.562
	c49.414-3.711,79.688-26.172,95.898-43.359c11.328,16.602,31.641,37.5,63.867,42.773v27.344c0,42.969-34.18,78.125-76.758,79.883
	c-0.977,0-1.953,0-2.93,0l0,0c-0.195,0-0.195,0-0.391,0c-0.977,0-1.953,0-2.93,0C343.555,453.516,309.375,418.359,309.375,375.195z
	 M415.625,486.719l-12.5,24.414h-27.539l-12.5-24.414c1.562-0.195,2.93-0.586,4.492-0.781c0.195,0,0.586,0,0.781-0.195
	c1.953-0.195,3.711-0.391,5.664-0.586c0.391,0,0.977-0.195,1.367-0.195c1.758-0.195,3.516-0.195,5.273-0.391
	c0.586,0,1.172,0,1.562-0.195c1.367,0,2.734-0.195,4.297-0.195c0.977,0,1.758,0,2.734,0s1.758,0,2.734,0
	c1.367,0,2.734,0,4.297,0.195c0.586,0,1.172,0,1.562,0.195c1.758,0.195,3.516,0.195,5.273,0.391c0.391,0,0.977,0.195,1.367,0.195
	c1.953,0.195,3.711,0.391,5.664,0.586c0.195,0,0.586,0,0.781,0.195C412.5,486.133,414.062,486.523,415.625,486.719z
	 M389.844,664.453c-0.195,0-0.391,0-0.586,0c0,0,0,0-0.195,0s-0.391,0-0.586,0l-32.227-29.492l21.875-94.531h22.07l21.875,94.531
	L389.844,664.453z M556.836,607.812c-0.977,0.781-1.953,1.562-2.93,2.344c-1.562,1.172-3.125,2.344-4.688,3.516
	c-1.367,0.977-2.734,1.953-4.297,2.93c-1.172,0.781-2.344,1.562-3.516,2.344c-2.344,1.562-4.688,2.93-7.031,4.492
	c-0.586,0.391-0.977,0.586-1.562,0.977c-29.102,17.578-61.328,29.688-94.727,35.742l10.156-9.375
	c3.906-3.516,5.664-8.984,4.297-14.062l-25.195-108.984l17.383-33.594c52.93,17.773,97.656,58.594,117.188,109.961
	C560.352,605.273,558.594,606.641,556.836,607.812z" class="RWmBdhCg_2"></path>
<style>.RWmBdhCg_0{stroke-dasharray:6698 6700;stroke-dashoffset:6699;}.start .RWmBdhCg_0{animation:RWmBdhCg_draw 1499ms ease-in 0ms forwards;}.RWmBdhCg_1{stroke-dasharray:1684 1686;stroke-dashoffset:1685;}.start .RWmBdhCg_1{animation:RWmBdhCg_draw 377ms ease-in 1499ms forwards;}.RWmBdhCg_2{stroke-dasharray:5020 5022;stroke-dashoffset:5021;}.start .RWmBdhCg_2{animation:RWmBdhCg_draw 1123ms ease-in 1876ms forwards;}@keyframes RWmBdhCg_draw{100%{stroke-dashoffset:0;}}@keyframes RWmBdhCg_fade{0%{stroke-opacity:1;}94.44444444444444%{stroke-opacity:1;}100%{stroke-opacity:0;}}</style></svg>
