<?xml version="1.0" encoding="UTF-8"?>
<svg width="71px" height="71px" viewBox="0 0 71 71" version="1.1" xmlns="http://www.w3.org/2000/svg" xmlns:xlink="http://www.w3.org/1999/xlink">
    <!-- Generator: Sketch 51.3 (57544) - http://www.bohemiancoding.com/sketch -->
    <title>icon</title>
    <desc>Created with Sketch.</desc>
    <defs></defs>
    <g id="Page-1" stroke="none" stroke-width="1" fill="none" fill-rule="evenodd">
        <g id="icon" fill="#000000" fill-rule="nonzero">
            <path d="M69.1001025,60.0886546 L55.7869525,46.7787541 C55.5928024,46.5846514 55.329313,46.4737356 55.0519557,46.4737356 C54.7745984,46.4737356 54.5111089,46.5846514 54.3169588,46.7787541 L53.7761121,47.3194689 L50.1288637,43.6731107 C57.8255286,32.8865456 56.8270423,17.7742628 47.1611407,8.09685608 C41.9468236,2.86994728 35.0128913,0 27.6213194,0 C20.2436154,0 13.2958152,2.86994728 8.08149812,8.09685608 C-2.69383271,18.8695567 -2.69383271,36.4081234 8.08149812,47.1808241 C13.2958152,52.4077329 20.2436154,55.2776801 27.6351873,55.2776801 C33.4596904,55.2776801 39.0207041,53.4891623 43.6664388,50.1616872 L47.3136872,53.8080453 L46.7728405,54.34876 C46.5786904,54.5428627 46.4677474,54.8062878 46.4677474,55.0835774 C46.4677474,55.360867 46.5786904,55.6242921 46.7728405,55.8183948 L60.0859905,69.1282953 C61.2924948,70.334505 62.901167,71 64.6069144,71 C66.3126618,71 67.921334,70.334505 69.1278383,69.1282953 C70.3343425,67.9220855 71,66.3138059 71,64.6084749 C70.9722643,62.8892794 70.3066068,61.2948643 69.1001025,60.0886546 Z M43.1255921,47.9572349 C43.0978563,47.9710994 43.0839885,47.9988284 43.0562527,48.0126928 C38.6324039,51.3678969 33.2794082,53.1841437 27.6351873,53.1841437 C20.8121979,53.1841437 14.3913765,50.5221636 9.56535964,45.6973247 C-0.405635041,35.7287639 -0.405635041,19.5211873 9.56535964,9.55262644 C14.3913765,4.72778754 20.8121979,2.06580746 27.6351873,2.06580746 C34.4581767,2.06580746 40.878998,4.72778754 45.7050149,9.55262644 C54.8439377,18.6893185 55.6066702,33.0667838 47.9932126,43.0630736 C47.9793447,43.0769381 47.9654768,43.0908026 47.951609,43.1185315 C47.2582157,44.0197227 46.4954832,44.8931849 45.7050149,45.6834603 C44.8868109,46.515329 44.0270033,47.2640109 43.1255921,47.9572349 Z M45.3167147,48.8722906 C45.9546365,48.3315759 46.5786904,47.7769967 47.1750085,47.1808241 C47.7713267,46.5846514 48.3399092,45.9607499 48.866888,45.3368483 L52.3199863,48.7891037 L48.769813,52.3384105 L45.3167147,48.8722906 Z M67.6301089,67.6447959 C67.6301089,67.6447959 67.6301089,67.6447959 67.6301089,67.6447959 C65.9520973,69.322398 63.2201279,69.322398 61.5421163,67.6447959 L48.9639631,55.0697129 L49.5048098,54.5289982 L54.5249768,49.5100566 C54.5249768,49.5100566 54.5249768,49.5100566 54.5249768,49.5100566 L55.0658235,48.9693419 L67.6439768,61.5444249 C68.4621808,62.3624292 68.9059524,63.4438586 68.9059524,64.5946104 C68.8920846,65.7453622 68.4483129,66.8267916 67.6301089,67.6447959 Z" id="Shape"></path>
            <path d="M27.5732066,6 C20.7089753,6 14.2139359,9.34915773 10.1938483,14.9586524 C9.86567784,15.4272588 9.96139421,16.0612557 10.4263023,16.4058193 C10.8912104,16.7366003 11.5202037,16.6401225 11.8620479,16.1715161 C15.49927,11.0995406 21.3789899,8.08116386 27.5732066,8.08116386 C38.2524189,8.08116386 46.9489349,16.8468606 46.9489349,27.611026 C46.9489349,29.0030628 46.7985235,30.3950995 46.5113743,31.7457887 C46.3883104,32.3108729 46.7438284,32.848392 47.3044528,32.9724349 C47.3728217,32.9862175 47.4548643,33 47.5232331,33 C48.001815,33 48.4257018,32.669219 48.5214181,32.18683 C48.8359148,30.6983155 49,29.1546708 49,27.611026 C49,15.7029096 39.3873416,6 27.5732066,6 Z" id="Shape"></path>
            <path d="M47.3275332,33.8733691 C46.7877563,33.666155 46.1926177,33.9286262 45.9850112,34.467383 C44.9885,37.0092095 43.4937332,39.2885649 41.5837535,41.1949348 C40.545721,38.8603223 38.8433477,36.7605526 36.6842402,35.171911 C35.2863564,34.1496546 33.7223875,33.362241 32.0892164,32.8372985 C34.1099196,31.4420568 35.4386012,29.1074444 35.4386012,26.4827322 L35.4386012,20.7221796 C35.4386012,16.5917114 32.1860994,13.2210284 28.1031716,13.0138143 C27.9647673,13.0138143 27.8402034,13 27.7017991,13 C27.5218735,13 27.3557883,13.0138143 27.1897031,13.0138143 C23.162137,13.2762855 19.964997,16.6331543 19.964997,20.7221796 L19.964997,26.4827322 C19.964997,29.1212586 21.2936786,31.4420568 23.3143818,32.8372985 C21.6812107,33.3484267 20.1172418,34.1358404 18.719358,35.171911 C16.5602504,36.7605526 14.8717176,38.8465081 13.8198447,41.1811205 C10.2766938,37.6308519 8.07606496,32.7405986 8.07606496,27.3530315 C8.07606496,24.3691481 8.72656532,21.495779 10.027566,18.8296239 C10.2766938,18.3184958 10.0552469,17.6968534 9.54315087,17.4481965 C9.03105485,17.1995395 8.40823536,17.4205679 8.15910756,17.9316961 C6.71970252,20.8879509 6,24.0514198 6,27.3530315 C6,33.8595549 8.89265052,39.7029931 13.4599934,43.6815042 C13.4876743,43.7091328 13.5291956,43.7505756 13.5568765,43.7782041 C15.2592497,45.2425173 17.1830699,46.4167306 19.2176136,47.2870299 C19.231454,47.2870299 19.2452945,47.3008442 19.2591349,47.3008442 C19.3006562,47.3146585 19.3560179,47.342287 19.4113797,47.3561013 C21.2521573,48.1158864 23.2036583,48.6270146 25.2520424,48.8618573 C25.2658829,48.8618573 25.2797233,48.8618573 25.3074042,48.8618573 C25.4319681,48.8756715 25.5703724,48.8894858 25.7087767,48.9033001 C25.750298,48.9033001 25.8056598,48.9171144 25.8471811,48.9171144 C25.9579045,48.9309286 26.068628,48.9309286 26.1793514,48.9447429 C26.2485536,48.9447429 26.3177558,48.9585572 26.3869579,48.9585572 C26.483841,48.9585572 26.580724,48.9723715 26.677607,48.9723715 C26.7744901,48.9723715 26.8713731,48.9861857 26.9682561,48.9861857 C27.0374583,48.9861857 27.1066605,48.9861857 27.1897031,49 C27.3696287,49 27.5357139,49 27.7156395,49 C27.9647673,49 28.2000547,49 28.4491825,48.9861857 C28.5045442,48.9861857 28.5599059,48.9861857 28.6152677,48.9861857 C28.8367146,48.9723715 29.0443211,48.9585572 29.265768,48.9447429 C29.3626511,48.9447429 29.4456937,48.9309286 29.5425767,48.9171144 C29.680981,48.9033001 29.8332258,48.8894858 29.9716301,48.8756715 C30.1515557,48.8618573 30.3453218,48.8342287 30.5252474,48.8066002 C30.5806092,48.7927859 30.6359709,48.7927859 30.6913326,48.7789716 C33.6531853,48.3783576 36.4766337,47.3699156 39.0371138,45.8089025 C39.0924755,45.781274 39.1339968,45.7536454 39.1893585,45.7122026 C39.300082,45.6431312 39.4246459,45.5740599 39.5353694,45.4911742 C39.6876141,45.3944743 39.8398589,45.2977744 39.9782632,45.1872602 C40.0197845,45.1596316 40.0613058,45.1320031 40.1028271,45.1043745 C40.1443484,45.076746 40.1997102,45.0353031 40.2412315,45.0076746 C40.3657954,44.9109747 40.5041997,44.828089 40.6287636,44.7313891 C40.7256466,44.6623177 40.8225297,44.5932464 40.9194127,44.5103607 C41.0301361,44.4274751 41.1270192,44.3445894 41.2377426,44.2617038 C41.3346257,44.1788181 41.4315087,44.1097467 41.5283917,44.0268611 C41.6391152,43.9439754 41.7498387,43.8472755 41.8467217,43.7505756 C41.8467217,43.7505756 41.8467217,43.7505756 41.8467217,43.7505756 C44.5456062,41.4435917 46.6355116,38.5149655 47.9365123,35.1857252 C48.1302783,34.6884114 47.8673101,34.0805833 47.3275332,33.8733691 Z M22.041062,20.7359939 C22.041062,17.627782 24.5738612,15.0859555 27.7017991,15.0859555 C30.829737,15.0859555 33.3625362,17.6139678 33.3625362,20.7359939 L33.3625362,22.4489639 C30.9819817,21.8549501 30.0131514,19.4098235 29.9577897,19.2993093 C29.8193853,18.9263239 29.4595341,18.6500384 29.0581615,18.6362241 C28.656789,18.6085955 28.2692568,18.8158097 28.0754908,19.1749808 C28.0062886,19.2993093 26.3731175,22.1312356 22.041062,22.5318496 L22.041062,20.7359939 Z M23.5219883,45.9746738 L24.2416908,46.637759 C23.2036583,46.4581734 22.1933067,46.181888 21.210636,45.8365311 C21.210636,45.8365311 21.210636,45.8365311 21.210636,45.8365311 C21.0860721,45.7950883 20.9615082,45.7536454 20.8369443,45.6983883 C20.8092634,45.6845741 20.795423,45.6845741 20.7677421,45.6707598 C20.6570186,45.629317 20.5601356,45.5878741 20.4494121,45.5464313 C20.3386887,45.5049885 20.2418056,45.4635457 20.1310822,45.4221028 C20.1034013,45.4082886 20.0895609,45.4082886 20.06188,45.3944743 C18.401028,44.6899463 16.8508995,43.7643899 15.4530158,42.6454336 C16.8370591,39.0122794 19.9926779,36.1250959 23.7572757,34.8679969 L24.9890742,37.2440522 L23.2036583,44.9524175 C23.1344562,45.3392172 23.2451796,45.7260169 23.5219883,45.9746738 Z M22.041062,26.4827322 L22.041062,24.6039908 C25.5426915,24.3415196 27.6879587,22.752878 28.8367146,21.5372218 C29.6394597,22.7114351 31.0788648,24.1895625 33.3625362,24.562548 L33.3625362,26.4965464 C33.3625362,29.5356869 30.9404604,32.0222563 27.923246,32.1465848 C27.8540438,32.1465848 27.7848417,32.1465848 27.7156395,32.1465848 C27.7017991,32.1465848 27.7017991,32.1465848 27.6879587,32.1465848 C27.6187565,32.1465848 27.5495543,32.1465848 27.4803522,32.1465848 C24.4631377,32.0222563 22.041062,29.5356869 22.041062,26.4827322 Z M29.5702576,34.370683 L28.6844698,36.0974674 L26.7329688,36.0974674 L25.8471811,34.370683 C25.9579045,34.3568688 26.0547875,34.3292402 26.165511,34.3154259 C26.1793514,34.3154259 26.2070323,34.3154259 26.2208727,34.3016117 C26.3592771,34.2877974 26.483841,34.2739831 26.6222453,34.2601688 C26.6499262,34.2601688 26.6914475,34.2463546 26.7191283,34.2463546 C26.8436922,34.2325403 26.9682561,34.2325403 27.09282,34.218726 C27.1343413,34.218726 27.1758626,34.218726 27.2035435,34.2049117 C27.3004265,34.2049117 27.3973096,34.1910975 27.508033,34.1910975 C27.5772352,34.1910975 27.6325969,34.1910975 27.7017991,34.1910975 C27.7710012,34.1910975 27.826363,34.1910975 27.8955651,34.1910975 C27.9924482,34.1910975 28.0893312,34.1910975 28.2000547,34.2049117 C28.241576,34.2049117 28.2830973,34.2049117 28.3107781,34.218726 C28.435342,34.2325403 28.5599059,34.2325403 28.6844698,34.2463546 C28.7121507,34.2463546 28.753672,34.2601688 28.7813529,34.2601688 C28.9197572,34.2739831 29.0443211,34.2877974 29.1827254,34.3016117 C29.1965659,34.3016117 29.2242467,34.3016117 29.2380872,34.3154259 C29.3488106,34.3292402 29.4595341,34.3568688 29.5702576,34.370683 Z M27.7433204,46.9416731 C27.72948,46.9416731 27.7156395,46.9416731 27.7017991,46.9416731 C27.7017991,46.9416731 27.7017991,46.9416731 27.6879587,46.9416731 C27.6741182,46.9416731 27.6602778,46.9416731 27.6464374,46.9416731 L25.3627659,44.8557176 L26.9128944,38.1696086 L28.4768633,38.1696086 L30.0269918,44.8557176 L27.7433204,46.9416731 Z M39.5768907,42.9355334 C39.5076885,42.9907905 39.4384863,43.0460476 39.3692842,43.1013047 C39.2585607,43.1841903 39.1478372,43.267076 39.0371138,43.3499616 C38.9402308,43.419033 38.8433477,43.4881044 38.7326243,43.5571757 C38.6495817,43.6124328 38.5665391,43.6676899 38.4834965,43.722947 C38.3174113,43.8334612 38.1513261,43.9301612 37.9852409,44.0406754 C37.9437196,44.0683039 37.9160387,44.0821182 37.8745174,44.1097467 C35.8122929,45.3530315 33.5286214,46.2095165 31.1619074,46.637759 L31.8816099,45.9746738 C32.1584185,45.7260169 32.2829824,45.3392172 32.1860994,44.980046 L30.4006835,37.2716807 L31.6324821,34.8956255 C35.3832394,36.1527245 38.5526986,39.0399079 39.9367419,42.6730622 C39.8260185,42.7559478 39.7014546,42.8526477 39.5768907,42.9355334 Z" id="Shape"></path>
        </g>
    </g>
</svg>