<svg xmlns="http://www.w3.org/2000/svg" viewBox="0 0 62.89 47.53"><path d="M70.62,53.14a5.45,5.45,0,0,0-4.75-1.77s-.29-.71-.58-.86l-.5-.28.43-.44a12.1,12.1,0,0,0,.86-1.14,10,10,0,0,0,1.3-2.45l.43-1.07.21-.22a1.28,1.28,0,0,0,.51-1.07V42.4a1.41,1.41,0,0,0-.29-.86l-.07-.07V39.31c-.07-3.3-3.38-6-6.68-6S54.23,36,54.23,39.24v2.15l-.07.08a1.93,1.93,0,0,0-.22.86v1.43a1.4,1.4,0,0,0,.51,1.08l.21-.5c.15.36.22,1.43.36,1.72a12.07,12.07,0,0,0,1.37,2.51c.21.29.5.72.86,1.15l.36.43a4.89,4.89,0,0,1-.5.36,2.89,2.89,0,0,0-.58.86l-2.94.87-2.06,3.5a24,24,0,0,1,2.5.8c1,.37,2.18,1,2.23,1,1.53,1.08,3,5.87,3.07,6.22.28.95.71,2.37,1.33,4.13A27.78,27.78,0,0,0,68,59.45,27.35,27.35,0,0,0,70.62,53.14Z" transform="translate(-8.48 -32.6)" style="fill:none;stroke:#333;stroke-linejoin:round;stroke-width:1.5px"/><path d="M40.05,79.38a36.38,36.38,0,0,1-18-4.73.26.26,0,0,1-.12-.28C24,64.18,26.12,61,27.08,60.65l7.09-2.12.21-.81a.83.83,0,0,1,.21-.31l.2-.24,1.25-.9-1-1.22a17,17,0,0,1-1.15-1.53A16.28,16.28,0,0,1,32,50.15a5.23,5.23,0,0,1-.45-1.26l0-.1-.26-.52L31,48.1a1.23,1.23,0,0,1-.36-.87v-2a1.82,1.82,0,0,1,.27-.78L31.1,44V40.83c0-4,5-7.45,9-7.45s8.75,3.33,8.75,7.45v.87a2.21,2.21,0,0,0-.35-.68,11.61,11.61,0,0,0-3.07-3,1.24,1.24,0,0,0,1.07-.81,1.35,1.35,0,0,0-.38-1.54,2.88,2.88,0,0,0-.34-.23A12.47,12.47,0,0,0,40.16,34,11.88,11.88,0,0,0,35,35.22a6.81,6.81,0,0,0-.77.44,1.32,1.32,0,0,0-.46,1.58,1.28,1.28,0,0,0,1,.82,11.82,11.82,0,0,0-2.39,2,12.41,12.41,0,0,0-.92,1.17A1.34,1.34,0,0,0,31.67,43a1.18,1.18,0,0,0,1.35.22,9.58,9.58,0,0,0,0,8.71,1.32,1.32,0,0,0,1.17.81,1.31,1.31,0,0,0,1.05-.61A20.79,20.79,0,0,0,37,55.54a2.35,2.35,0,0,0,.19.25,1.27,1.27,0,0,0,.91.4,1.21,1.21,0,0,0,.74-.26,1.35,1.35,0,0,0,.41-1.56,1.08,1.08,0,0,0-.08-.19,8.68,8.68,0,0,0,1,.82,12.19,12.19,0,0,0,1.57.93l.21.12a1.22,1.22,0,0,0,.58.15,1.28,1.28,0,0,0,1.15-.8,1.34,1.34,0,0,0-.32-1.53,5.4,5.4,0,0,0,1,.14,7.33,7.33,0,0,0,.94.06,3.69,3.69,0,0,0,.64,0A6.41,6.41,0,0,1,45,55.1l-1.1,1.32,1.53.95a.69.69,0,0,1,.39.4l.19.76,7.11,2.12c.87.23,3,3.39,5.13,13.72a.27.27,0,0,1-.11.28A37,37,0,0,1,42.5,79.29,22.48,22.48,0,0,1,40.05,79.38Zm6.87-27a1.24,1.24,0,0,0-.85-.92l-.08,0a3.75,3.75,0,0,0,1.11-.79,4.93,4.93,0,0,0,1.22-4.34,9.31,9.31,0,0,0-.94-3,1.41,1.41,0,0,0,.35.05,1.16,1.16,0,0,0,.79-.32,1.27,1.27,0,0,0,.38-.56V44l.21.42,0,0a1.21,1.21,0,0,1,.25.75v2a1.06,1.06,0,0,1-.36.87l-.35.17-.21.43-.63,1.56A12.5,12.5,0,0,1,46.92,52.37ZM44.61,49a.73.73,0,0,1-.65-.53,1.2,1.2,0,0,0,.87.38h.06l.13,0,.18,0a1,1,0,0,1-.32.16A.86.86,0,0,1,44.61,49Zm-1.69-3.28a3.76,3.76,0,0,0-3-1.57h.28A3.26,3.26,0,0,1,42.92,45.76ZM44,43.05a5.45,5.45,0,0,0-3.82-1.57,6.12,6.12,0,0,0-1.45.18l-.29.07a6.56,6.56,0,0,1,1.77-.29h.52A5.4,5.4,0,0,1,44,43.05Z" transform="translate(-8.48 -32.6)" style="fill:#333"/><path d="M33.1,37.58a2.15,2.15,0,0,0,.34.54,12.34,12.34,0,0,0-1.32,1.2,5.92,5.92,0,0,1,1-1.74m14,.2A5.82,5.82,0,0,1,47.77,39c-.29-.28-.59-.55-.9-.8a1.64,1.64,0,0,0,.26-.37M31.85,44h0m-.17.5A9.2,9.2,0,0,0,31.35,46v-.72a1.15,1.15,0,0,1,.15-.38l.05-.08,0-.09.09-.18M35,53.38c.17.36.35.73.55,1.1-.27-.33-.53-.66-.79-1l.24-.08m4.94,2.37c.48.33,1,.59,1.45.85l.22.11a1.92,1.92,0,0,0,.93.24,1.84,1.84,0,0,0,.66-.12l1.08.68.8.5.06,0h0l.07.25.2.83.82.24,6.71,2c.6.29,2.55,3.15,4.54,12.8a36.09,36.09,0,0,1-15,4.37h-.09a21.81,21.81,0,0,1-2.31.08,35.68,35.68,0,0,1-17.32-4.46c2-9.65,4-12.56,4.55-12.8l6.7-2,.82-.24L35,58.3l.07-.32.08-.08.15-.18.51-.37,1.12-.8a1.94,1.94,0,0,0,1.17.39,1.91,1.91,0,0,0,1.2-.42,2,2,0,0,0,.61-.77m.23-23.12c-4.5,0-9.8,3.7-9.8,8.2v3l-.1.2a2.45,2.45,0,0,0-.4,1.2v2a2,2,0,0,0,.7,1.5l.2.1.1.2a5.78,5.78,0,0,0,.5,1.4,17,17,0,0,0,1.9,3.5c.4.6.8,1.1,1.2,1.6l.5.6-.7.5c-.2.3-.5.5-.6.9l-.1.4-6.7,2c-1.85.59-4,5.9-5.66,14.29a1,1,0,0,0,.48,1.08,37.26,37.26,0,0,0,18.38,4.83,20.9,20.9,0,0,0,2.5-.1,37.64,37.64,0,0,0,16-4.73A1,1,0,0,0,59,74.22c-1.68-8.3-3.81-13.8-5.66-14.29l-6.7-2-.1-.4a1.34,1.34,0,0,0-.7-.8l-.8-.5.5-.6a6.56,6.56,0,0,0,1.2-1.6,12.93,12.93,0,0,0,1.8-3.5l.6-1.5.1-.2.2-.1a1.8,1.8,0,0,0,.7-1.5v-2a1.92,1.92,0,0,0-.4-1.2l-.1-.2v-3c0-4.5-5-8.2-9.5-8.2Zm-5.22,4.69a.51.51,0,0,1-.46-.36.57.57,0,0,1,.19-.69,5.51,5.51,0,0,1,.67-.38,11.16,11.16,0,0,1,4.81-1.19,11.59,11.59,0,0,1,5.33,1.44l.2.14a.58.58,0,0,1,.18.7.49.49,0,0,1-.45.34.4.4,0,0,1-.15,0,2.79,2.79,0,0,1-.53-.24,10.33,10.33,0,0,0-4.6-1.15,9.84,9.84,0,0,0-4.62,1.21,3.3,3.3,0,0,1-.43.19l-.14,0ZM32.5,42.63a.5.5,0,0,1-.32-.13.58.58,0,0,1-.06-.81,11.58,11.58,0,0,1,.86-1.1,9.82,9.82,0,0,1,6-3.27c.41,0,.82-.08,1.16-.11a9.65,9.65,0,0,1,7.83,4.25c.34.47.36.79.08,1a.44.44,0,0,1-.29.12c-.19,0-.39-.15-.61-.44a8.91,8.91,0,0,0-3-2.72,8.26,8.26,0,0,0-4-1.06,8.36,8.36,0,0,0-3.93,1,9.34,9.34,0,0,0-3.16,2.76,1.55,1.55,0,0,1-.19.24.51.51,0,0,1-.39.19ZM34.23,52a.56.56,0,0,1-.49-.38,8.59,8.59,0,0,1,1-9.55,7.16,7.16,0,0,1,4.85-2.59l.72,0a6.69,6.69,0,0,1,4.66,1.88,8.3,8.3,0,0,1,2.64,5,4.19,4.19,0,0,1-1,3.71,2.69,2.69,0,0,1-1.93.85,2.36,2.36,0,0,1-1.52-.54,3.15,3.15,0,0,1-1-2A3.18,3.18,0,0,0,41.53,47a2,2,0,0,0-1.6-.89,2.25,2.25,0,0,0-.44,0,1.8,1.8,0,0,0-1.29,2.09,7.52,7.52,0,0,0,4.3,6,1.67,1.67,0,0,1,.23.12.63.63,0,0,1,.25.78.51.51,0,0,1-.46.34.46.46,0,0,1-.22-.06,13.77,13.77,0,0,1-1.7-1,8.61,8.61,0,0,1-3.24-4.85,4.43,4.43,0,0,1,0-2.9A2.52,2.52,0,0,1,39.67,45h.21A3.33,3.33,0,0,1,43,47.75c0,.23.09.46.14.69a1.53,1.53,0,0,0,1.45,1.35,1.92,1.92,0,0,0,.51-.08,2.36,2.36,0,0,0,1.47-2.32,6,6,0,0,0-.24-1.7c-.94-2.91-2.76-4.61-5.49-5l-.23,0h-.42a6.3,6.3,0,0,0-5.7,3.67,7.12,7.12,0,0,0-.3,5.62c.12.38.28.74.43,1.1a.65.65,0,0,1-.17.87.46.46,0,0,1-.24.08Zm3.88,3.41a.47.47,0,0,1-.36-.17.64.64,0,0,1-.1-.13,16.56,16.56,0,0,1-2.37-5.59,7.73,7.73,0,0,1-.07-3,4.81,4.81,0,0,1,3.72-4.13,5.28,5.28,0,0,1,1.28-.16A4.88,4.88,0,0,1,43.94,44a6,6,0,0,1,1.39,3.3,1.69,1.69,0,0,1,0,.23.58.58,0,0,1-.45.57h-.06a.55.55,0,0,1-.49-.44c0-.13-.05-.26-.07-.4a4.3,4.3,0,0,0-4-3.86h-.11a3.76,3.76,0,0,0-2.74,1,4.19,4.19,0,0,0-1.27,3,9.94,9.94,0,0,0,1,4.28c.39.86.85,1.66,1.29,2.49.06.12.13.23.18.35a.61.61,0,0,1-.17.71.46.46,0,0,1-.28.1Zm7.15-2.12c-.41,0-.84,0-.89,0a5.71,5.71,0,0,1-1.43-.3,4.51,4.51,0,0,1-1.75-1.07,5.68,5.68,0,0,1-1.43-2.77c-.08-.36-.14-.74-.19-1.12a.61.61,0,0,1,.42-.76h.1c.25,0,.43.21.5.58s.17,1,.31,1.48a3.69,3.69,0,0,0,3.25,2.76c.45.06.9,0,1.35.07a1.11,1.11,0,0,1,.36,0,.54.54,0,0,1,.35.57.53.53,0,0,1-.12.37.46.46,0,0,1-.26.16,2.94,2.94,0,0,1-.57,0Z" transform="translate(-8.48 -32.6)" style="fill:#333"/><path d="M9.23,53.14A5.48,5.48,0,0,1,14,51.37s.28-.71.57-.86l.5-.28-.43-.44c-.28-.35-.57-.71-.86-1.14a10.35,10.35,0,0,1-1.29-2.45l-.43-1.07-.22-.22a1.27,1.27,0,0,1-.5-1.07V42.4a1.35,1.35,0,0,1,.29-.86l.07-.07V39.31c.07-3.3,3.37-6,6.68-6s7.25,2.66,7.25,5.89v2.15l.08.08a1.91,1.91,0,0,1,.21.86v1.43a1.39,1.39,0,0,1-.5,1.08l-.22-.5c-.14.36-.21,1.43-.36,1.72a12.5,12.5,0,0,1-1.36,2.51c-.22.29-.5.72-.86,1.15l-.36.43a4.89,4.89,0,0,0,.5.36,2.89,2.89,0,0,1,.58.86l2.94.87,2.06,3.5a23.31,23.31,0,0,0-2.51.8c-1,.37-2.18,1-2.22,1-1.54,1.08-3,5.87-3.07,6.22-.28.95-.72,2.37-1.34,4.13a28.05,28.05,0,0,1-7.36-8.42A27.35,27.35,0,0,1,9.23,53.14Z" transform="translate(-8.48 -32.6)" style="fill:none;stroke:#333;stroke-linejoin:round;stroke-width:1.5px"/></svg>