<?xml version="1.0" encoding="utf-8"?>
<!-- Generator: Adobe Illustrator 24.3.0, SVG Export Plug-In . SVG Version: 6.00 Build 0)  -->
<svg version="1.1" id="Layer_1" xmlns="http://www.w3.org/2000/svg" xmlns:xlink="http://www.w3.org/1999/xlink" x="0px" y="0px"
	 viewBox="0 0 80.2 80.2" style="enable-background:new 0 0 80.2 80.2;" xml:space="preserve">
<style type="text/css">
	.st0{fill:none;stroke:#333333;stroke-width:1.5;stroke-linejoin:round;stroke-miterlimit:10;}
	.st1{fill:none;stroke:#333333;stroke-width:2;stroke-linejoin:round;stroke-miterlimit:10;}
	.st2{fill:none;stroke:#333333;stroke-width:0.75;stroke-linecap:round;stroke-miterlimit:10;}
	.st3{fill:#333333;stroke:#333333;stroke-width:1.5;stroke-miterlimit:10;}
	.st4{fill:none;stroke:#333333;stroke-width:0.5;stroke-miterlimit:10;}
	.st5{fill:none;stroke:#333333;stroke-width:0.5;stroke-linecap:round;stroke-linejoin:round;stroke-miterlimit:10;}
	.st6{fill:#FFFFED;}
</style>
<path class="st0" d="M77.8,39.5c-0.4-0.5-1.4-1.5-3.1-2.2c-1.6-0.6-2.9-0.5-3.6-0.4L71,36.6c-0.1-0.3-0.3-0.6-0.7-0.8l-0.7-0.4
	l0.6-0.6c0.4-0.5,0.8-1,1.2-1.6c0.8-1.1,1.4-2.3,1.8-3.4c0.2-0.5,0.4-1,0.6-1.5l0.1-0.2l0.2-0.1c0.5-0.4,0.7-0.9,0.7-1.5v-2
	c0-0.4-0.1-0.8-0.4-1.2l-0.1-0.1v-3c-0.1-4.6-4.7-8.3-9.3-8.3c-4.5,0-10.1,3.7-10.1,8.2v3l-0.1,0.1c-0.2,0.4-0.3,0.8-0.3,1.2v2
	c0,0.6,0.3,1.2,0.7,1.5l0.2,0.1l0.1,0.2c0.2,0.5,0.3,1,0.5,1.4c0.5,1.2,1.1,2.4,1.9,3.5c0.3,0.4,0.7,1,1.2,1.6l0.5,0.6
	c0,0-0.5,0.4-0.7,0.5c-0.4,0.3-0.6,0.5-0.7,0.8L58.1,37L54,38.2c-1,1.6-1.9,3.3-2.9,4.9c0.9,0.2,2.1,0.6,3.5,1.1
	c1.4,0.5,2.3,0.9,2.9,1.3c0.5,0.3,2.2,1.5,4.4,8.8c1,3.2,1.1,4.4,2,4.7c1.1,0.3,2.5-1,4.7-3.3c2.3-2.3,3.7-4.4,4.2-5.3
	c0.6-0.9,1.9-2.9,3.1-5.7C76.8,42.6,77.4,40.9,77.8,39.5z"/>
<path class="st1" d="M77.8,39L77.8,39"/>
<path class="st1" d="M77.6,39L77.6,39"/>
<g>
	<path class="st1" d="M50.6,49.8"/>
</g>
<path class="st1" d="M63.7,61.8"/>
<path class="st0" d="M2.4,39.4c0.4-0.5,1.4-1.5,3.1-2.2c1.6-0.6,2.9-0.5,3.6-0.4l0.1-0.4c0.1-0.3,0.3-0.6,0.7-0.8l0.7-0.4L10,34.7
	c-0.4-0.5-0.8-1-1.2-1.6C8,32,7.4,30.8,7,29.7c-0.2-0.5-0.4-1-0.6-1.5L6.3,28l-0.2-0.1c-0.5-0.4-0.7-0.9-0.7-1.5v-2
	c0-0.4,0.1-0.8,0.4-1.2l0.1-0.1v-3c0.1-4.6,4.7-8.3,9.3-8.3c4.5,0,10.1,3.7,10.1,8.2v3l0.1,0.1c0.2,0.4,0.3,0.8,0.3,1.2v2
	c0,0.6-0.3,1.2-0.7,1.5l-0.2,0.1l-0.1,0.2c-0.2,0.5-0.3,1-0.5,1.4c-0.5,1.2-1.1,2.4-1.9,3.5c-0.3,0.4-0.7,1-1.2,1.6l-0.5,0.6
	c0,0,0.5,0.4,0.7,0.5c0.4,0.3,0.6,0.5,0.7,0.8l0.1,0.4l4.1,1.2c1,1.6,1.9,3.3,2.9,4.9c-0.9,0.2-2.1,0.6-3.5,1.1
	c-1.4,0.5-2.3,0.9-2.9,1.3c-0.5,0.3-2.2,1.5-4.4,8.8c-1,3.2-1.1,4.4-2,4.7c-1.1,0.3-2.5-1-4.7-3.3c-2.2-2.3-3.7-4.4-4.2-5.3
	c-0.6-0.9-1.9-2.9-3.1-5.7C3.4,42.5,2.8,40.8,2.4,39.4z"/>
<path class="st2" d="M53.3,64.1"/>
<path class="st2" d="M25.1,63"/>
<path class="st2" d="M53.1,51.1"/>
<path class="st3" d="M33.4,45.8l-0.1,0.4l-6.7,2c-1.8,0.6-4,5.9-5.7,14.3c-0.1,0.4,0.1,0.9,0.5,1.1c5.6,3.2,11.9,4.8,18.4,4.8
	c0.8,0,1.7,0,2.5-0.1c5.6-0.4,11.1-2,16-4.7c0.4-0.2,0.6-0.7,0.5-1.1c-1.7-8.3-3.8-13.8-5.7-14.3l-6.7-2l-0.1-0.4
	c-0.1-0.3-0.3-0.6-0.7-0.8l-0.8-0.5l0.5-0.6c0.6-0.6,1-1.2,1.2-1.6c0.8-1.1,1.4-2.3,1.8-3.5c0.2-0.5,0.4-1,0.6-1.5l0.1-0.2l0.2-0.1
	c0.5-0.4,0.7-0.9,0.7-1.5v-2c0-0.4-0.1-0.8-0.4-1.2l-0.1-0.2v-3c0-4.5-5-8.2-9.5-8.2s-9.8,3.7-9.8,8.2v3L30,32.3
	c-0.2,0.3-0.4,0.8-0.4,1.2v2c0,0.6,0.3,1.2,0.7,1.5l0.2,0.1l0.1,0.2c0.1,0.5,0.3,1,0.5,1.4c0.5,1.2,1.1,2.4,1.9,3.5
	c0.4,0.6,0.8,1.1,1.2,1.6l0.5,0.6L34,44.9C33.8,45.2,33.5,45.4,33.4,45.8z"/>
<path class="st4" d="M22.7,62.6"/>
<path class="st4" d="M57.5,62.4"/>
<path class="st5" d="M56.6,59.1"/>
<path class="st5" d="M25.1,59.1"/>
<path class="st5" d="M53.5,53.9"/>
<g>
	<path class="st6" d="M40.2,29.2c-2.5,0.1-4.6,1.1-5.9,3.3c-1,1.6-1,3.4-0.3,5.1c0.1,0.3,0.3,0.7,0.4,1c0.2,0.3,0.1,0.6-0.2,0.8
		c-0.3,0.2-0.6,0-0.8-0.3c-1.6-2.9-1.4-6.2,1-8.7c1.4-1.4,3.1-2.2,5-2.4c2.1-0.2,3.9,0.4,5.6,1.7c1.5,1.2,2.4,2.7,2.7,4.6
		c0.2,1.3,0,2.5-1.1,3.4c-1,0.9-2.5,1-3.6,0.3c-0.6-0.4-0.9-1.1-1.1-1.8c-0.1-0.5-0.2-1-0.6-1.3c-0.6-0.6-1.3-0.9-2.1-0.8
		c-0.9,0.2-1.5,0.9-1.3,1.9c0.2,1.4,0.8,2.5,1.7,3.5c0.8,0.8,1.7,1.4,2.7,1.9c0.1,0,0.2,0.1,0.2,0.1c0.3,0.2,0.4,0.4,0.3,0.7
		c-0.1,0.3-0.4,0.4-0.7,0.3c-0.6-0.3-1.2-0.6-1.8-0.9c-1.7-1.1-2.8-2.5-3.3-4.4c-0.3-0.9-0.4-1.8,0.1-2.6c0.5-1,1.3-1.5,2.3-1.5
		c1.7-0.1,3,0.9,3.5,2.6c0.1,0.2,0.1,0.4,0.1,0.6c0.2,1,1.1,1.4,2,1.2c0.9-0.3,1.5-1.1,1.5-2.1c0-0.5-0.1-1.1-0.2-1.5
		c-1-2.6-2.8-4.2-5.7-4.5C40.7,29.1,40.4,29.2,40.2,29.2z"/>
	<path class="st6" d="M36,35.4c0,1.6,0.4,2.8,1,3.9c0.4,0.8,0.9,1.5,1.3,2.3c0.1,0.1,0.1,0.2,0.2,0.3c0.1,0.2,0,0.5-0.2,0.6
		c-0.2,0.1-0.5,0.1-0.7-0.1c0,0-0.1-0.1-0.1-0.1c-1.1-1.6-2-3.2-2.4-5.1c-0.2-0.9-0.3-1.8-0.1-2.8c0.5-2.1,1.8-3.3,3.8-3.8
		c2-0.4,3.7,0.1,5.2,1.5c0.8,0.8,1.3,1.9,1.4,3c0,0.1,0,0.1,0,0.2c0,0.3-0.2,0.5-0.5,0.5c-0.2,0-0.5-0.1-0.6-0.4
		c0-0.1-0.1-0.2-0.1-0.4c-0.4-2-2.1-3.5-4.1-3.5c-1.1,0-2.1,0.2-2.9,0.9C36.4,33.4,36,34.5,36,35.4z"/>
	<path class="st6" d="M40.1,26c3.3,0.1,6,1.4,8.1,3.9c0.4,0.4,0.4,0.7,0.1,1c-0.3,0.2-0.6,0.1-0.9-0.3c-0.9-1-1.9-1.9-3.1-2.5
		c-2.7-1.3-5.4-1.3-8.2,0c-1.3,0.6-2.4,1.5-3.3,2.5c-0.1,0.1-0.1,0.2-0.2,0.2c-0.2,0.2-0.5,0.2-0.7,0c-0.2-0.2-0.3-0.5-0.1-0.7
		c0.3-0.3,0.6-0.7,0.9-1c1.7-1.7,3.8-2.7,6.2-3C39.3,26,39.8,26,40.1,26z"/>
	<path class="st6" d="M40.1,23.7c1.9,0,3.8,0.5,5.5,1.3c0.1,0,0.1,0.1,0.2,0.1c0.2,0.2,0.3,0.4,0.2,0.6c-0.1,0.2-0.4,0.4-0.6,0.3
		c-0.2-0.1-0.4-0.1-0.5-0.2c-3.2-1.4-6.4-1.4-9.5,0c-0.1,0.1-0.3,0.1-0.4,0.2c-0.3,0.1-0.5-0.1-0.6-0.3c-0.1-0.2,0-0.5,0.2-0.6
		c0.2-0.1,0.5-0.2,0.7-0.3C36.8,24.1,38.4,23.7,40.1,23.7z"/>
	<path class="st6" d="M43,40.3c-0.4-0.1-1.1-0.4-1.8-1c-0.7-0.6-1.2-1.5-1.5-2.5c-0.1-0.3-0.1-0.7-0.2-1c-0.1-0.4,0.1-0.6,0.4-0.7
		c0.3-0.1,0.5,0.1,0.6,0.5c0.1,0.5,0.2,0.9,0.3,1.4c0.6,1.6,1.8,2.3,3.4,2.5c0.5,0.1,0.9,0,1.4,0.1c0.1,0,0.3,0,0.4,0
		c0.2,0.1,0.4,0.3,0.4,0.5c0,0.1,0,0.3-0.1,0.3c-0.1,0.1-0.2,0.1-0.3,0.1c-0.4,0.1-1.4,0-1.5,0C44.1,40.6,43.6,40.5,43,40.3z"/>
</g>
</svg>
